<svg
  id="visual"
  viewBox="0 0 1920 1080"
  width="1920"
  height="1080"
  xmlns="http://www.w3.org/2000/svg"
  xmlns:xlink="http://www.w3.org/1999/xlink"
  version="1.1"
>
  <path
    d="M0 260L22.8 254.7C45.7 249.3 91.3 238.7 137 229.7C182.7 220.7 228.3 213.3 274 213.3C319.7 213.3 365.3 220.7 411.2 211.7C457 202.7 503 177.3 548.8 164.7C594.7 152 640.3 152 686 144.8C731.7 137.7 777.3 123.3 823 130.5C868.7 137.7 914.3 166.3 960 162.7C1005.7 159 1051.3 123 1097 110.5C1142.7 98 1188.3 109 1234 136C1279.7 163 1325.3 206 1371.2 200.5C1417 195 1463 141 1508.8 114C1554.7 87 1600.3 87 1646 92.5C1691.7 98 1737.3 109 1783 116.3C1828.7 123.7 1874.3 127.3 1897.2 129.2L1920 131L1920 0L1897.2 0C1874.3 0 1828.7 0 1783 0C1737.3 0 1691.7 0 1646 0C1600.3 0 1554.7 0 1508.8 0C1463 0 1417 0 1371.2 0C1325.3 0 1279.7 0 1234 0C1188.3 0 1142.7 0 1097 0C1051.3 0 1005.7 0 960 0C914.3 0 868.7 0 823 0C777.3 0 731.7 0 686 0C640.3 0 594.7 0 548.8 0C503 0 457 0 411.2 0C365.3 0 319.7 0 274 0C228.3 0 182.7 0 137 0C91.3 0 45.7 0 22.8 0L0 0Z"
    fill="#1971c2"
  ></path>
  <path
    d="M0 1081L22.8 1081C45.7 1081 91.3 1081 137 1081C182.7 1081 228.3 1081 274 1081C319.7 1081 365.3 1081 411.2 1081C457 1081 503 1081 548.8 1081C594.7 1081 640.3 1081 686 1081C731.7 1081 777.3 1081 823 1081C868.7 1081 914.3 1081 960 1081C1005.7 1081 1051.3 1081 1097 1081C1142.7 1081 1188.3 1081 1234 1081C1279.7 1081 1325.3 1081 1371.2 1081C1417 1081 1463 1081 1508.8 1081C1554.7 1081 1600.3 1081 1646 1081C1691.7 1081 1737.3 1081 1783 1081C1828.7 1081 1874.3 1081 1897.2 1081L1920 1081L1920 766L1897.2 776.8C1874.3 787.7 1828.7 809.3 1783 821.8C1737.3 834.3 1691.7 837.7 1646 821.3C1600.3 805 1554.7 769 1508.8 772.7C1463 776.3 1417 819.7 1371.2 832.3C1325.3 845 1279.7 827 1234 814.3C1188.3 801.7 1142.7 794.3 1097 798C1051.3 801.7 1005.7 816.3 960 845.2C914.3 874 868.7 917 823 909.7C777.3 902.3 731.7 844.7 686 842.8C640.3 841 594.7 895 548.8 920.3C503 945.7 457 942.3 411.2 919C365.3 895.7 319.7 852.3 274 839.7C228.3 827 182.7 845 137 873.8C91.3 902.7 45.7 942.3 22.8 962.2L0 982Z"
    fill="#1971c2"
  ></path>
</svg>
