<?xml version="1.0" encoding="UTF-8" standalone="no"?>
<!DOCTYPE svg PUBLIC "-//W3C//DTD SVG 1.1//EN" "http://www.w3.org/Graphics/SVG/1.1/DTD/svg11.dtd">
<svg width="100%" height="100%" viewBox="0 0 1920 1080" version="1.1" xmlns="http://www.w3.org/2000/svg" xmlns:xlink="http://www.w3.org/1999/xlink" xml:space="preserve" xmlns:serif="http://www.serif.com/" style="fill-rule:evenodd;clip-rule:evenodd;">
    <g>
        <g transform="matrix(1,0,0,1,29,202)">
            <path d="M0,-179.7L155.6,-89.8L155.6,89.8L0,179.7L-155.6,89.8L-155.6,-89.8L0,-179.7Z" style="fill:none;fill-rule:nonzero;stroke:rgb(224,49,49);stroke-width:2px;"/>
        </g>
        <g transform="matrix(1,0,0,1,489,118)">
            <path d="M0,-94L81.4,-47L81.4,47L0,94L-81.4,47L-81.4,-47L0,-94Z" style="fill:none;fill-rule:nonzero;stroke:rgb(95,61,196);stroke-width:2px;"/>
        </g>
        <g transform="matrix(1,0,0,1,1687,308)">
            <path d="M0,-126L109.1,-63L109.1,63L0,126L-109.1,63L-109.1,-63L0,-126Z" style="fill:none;fill-rule:nonzero;stroke:rgb(240,140,0);stroke-width:2px;"/>
        </g>
        <g transform="matrix(1,0,0,1,1566,917)">
            <path d="M0,-99L85.7,-49.5L85.7,49.5L0,99L-85.7,49.5L-85.7,-49.5L0,-99Z" style="fill:none;fill-rule:nonzero;stroke:rgb(102,168,15);stroke-width:2px;"/>
        </g>
        <g transform="matrix(1,0,0,1,991,299)">
            <path d="M0,-84L72.7,-42L72.7,42L0,84L-72.7,42L-72.7,-42L0,-84Z" style="fill:none;fill-rule:nonzero;stroke:rgb(25,113,194);stroke-width:2px;"/>
        </g>
        <g transform="matrix(1,0,0,1,236,918)">
            <path d="M0,-133L115.2,-66.5L115.2,66.5L0,133L-115.2,66.5L-115.2,-66.5L0,-133Z" style="fill:none;fill-rule:nonzero;stroke:rgb(156,54,181);stroke-width:2px;"/>
        </g>
        <g transform="matrix(1,0,0,1,751,757)">
            <path d="M0,-22L19.1,-11L19.1,11L0,22L-19.1,11L-19.1,-11L0,-22Z" style="fill:none;fill-rule:nonzero;stroke:rgb(59,91,219);stroke-width:2px;"/>
        </g>
        <g transform="matrix(1,0,0,1,260,518)">
            <path d="M0,-93L80.5,-46.5L80.5,46.5L0,93L-80.5,46.5L-80.5,-46.5L0,-93Z" style="fill:none;fill-rule:nonzero;stroke:rgb(194,37,92);stroke-width:2px;"/>
        </g>
        <g transform="matrix(1,0,0,1,1184,1062)">
            <path d="M0,-87L75.3,-43.5L75.3,43.5L0,87L-75.3,43.5L-75.3,-43.5L0,-87Z" style="fill:none;fill-rule:nonzero;stroke:rgb(9,146,104);stroke-width:2px;"/>
        </g>
        <g transform="matrix(1,0,0,1,1323,63)">
            <path d="M0,-150L129.9,-75L129.9,75L0,150L-129.9,75L-129.9,-75L0,-150Z" style="fill:none;fill-rule:nonzero;stroke:rgb(47,158,68);stroke-width:2px;"/>
        </g>
        <g transform="matrix(1,0,0,1,1880,730)">
            <path d="M0,-44L38.1,-22L38.1,22L0,44L-38.1,22L-38.1,-22L0,-44Z" style="fill:none;fill-rule:nonzero;stroke:rgb(224,49,49);stroke-width:2px;"/>
        </g>
        <g transform="matrix(1,0,0,1,1157,624)">
            <path d="M0,-127L110,-63.5L110,63.5L0,127L-110,63.5L-110,-63.5L0,-127Z" style="fill:none;fill-rule:nonzero;stroke:rgb(12,133,153);stroke-width:2px;"/>
        </g>
        <g transform="matrix(1,0,0,1,1879,4)">
            <path d="M0,-118L102.2,-59L102.2,59L0,118L-102.2,59L-102.2,-59L0,-118Z" style="fill:none;fill-rule:nonzero;stroke:rgb(232,89,12);stroke-width:2px;"/>
        </g>
    </g>
</svg>
