<svg version="1.1" id="Layer_1" xmlns="http://www.w3.org/2000/svg" xmlns:xlink="http://www.w3.org/1999/xlink" x="0px" y="0px" viewBox="0 0 40 40" style="enable-background:new 0 0 40 40;" xml:space="preserve"><style type="text/css"> .st0{fill:#9F1744;}</style><g> <ellipse class="st0" cx="27.6" cy="27.6" rx="3.7" ry="3.8"/> <path class="st0" d="M27.7,8.2c-1.4,0-2.7,0.8-3.3,2h6.6C30.4,9,29.2,8.2,27.7,8.2z"/> <path class="st0" d="M37,0H3C1.3,0,0,1.3,0,3v34c0,1.7,1.3,3,3,3h34c1.7,0,3-1.3,3-3V3C40,1.3,38.7,0,37,0z M11.8,34.5 c-3.8,0-6.8-3.1-6.8-6.9c0-3.8,3.1-6.9,6.8-6.9c3.4,0,6.2,2.5,6.8,5.8h-3.2c-0.5-1.5-1.9-2.7-3.6-2.7c-2.1,0-3.7,1.7-3.7,3.8 c0,2.1,1.7,3.8,3.7,3.8c1.7,0,3.2-1.2,3.6-2.7h3.2C18.1,32,15.3,34.5,11.8,34.5z M11.8,18.9C8.1,18.9,5,15.8,5,12 c0-3.8,3.1-6.9,6.8-6.9c3.8,0,6.8,3.1,6.8,6.9C18.7,15.8,15.6,18.9,11.8,18.9z M27.6,34.5c-3.8,0-6.8-3.1-6.8-6.9 c0-3.8,3.1-6.9,6.8-6.9c3.8,0,6.8,3.1,6.8,6.9C34.4,31.4,31.4,34.5,27.6,34.5z M34.5,13.1h-4.1h-6.2c0.5,1.5,1.9,2.6,3.6,2.6 c1.2,0,2.3-0.6,3-1.5h3.5c-0.9,2.7-3.5,4.6-6.5,4.6c-3.8,0-6.8-3.1-6.8-6.9c0-3.8,3.1-6.9,6.8-6.9c3.8,0,6.8,3.1,6.8,6.9 C34.6,12.4,34.5,12.7,34.5,13.1z"/></g></svg>